<svg xmlns="http://www.w3.org/2000/svg" viewBox="0 0 640 420" role="img" aria-labelledby="t d"><title id="t">Jewelry card packaging placeholder</title><desc id="d">Planning illustration of a jewelry display card with maker identity, care information, SKU, barcode and inventory-linked component notes.</desc><rect width="640" height="420" rx="28" fill="#2b1d36"/><rect x="175" y="45" width="290" height="330" rx="20" fill="#fffaf0" stroke="#b88a2f" stroke-width="8"/><circle cx="270" cy="148" r="18" fill="none" stroke="#7b4da6" stroke-width="7"/><circle cx="370" cy="148" r="18" fill="none" stroke="#7b4da6" stroke-width="7"/><path d="M270 166q50 88 100 0" fill="none" stroke="#7b4da6" stroke-width="6"/><text x="320" y="90" text-anchor="middle" font-family="Georgia,serif" font-size="24" fill="#32105e">DEVIL N DOVE</text><text x="320" y="262" text-anchor="middle" font-family="Arial,sans-serif" font-size="16" fill="#32105e">MAKER · CARE · SKU</text><g fill="#32105e"><rect x="245" y="292" width="8" height="42"/><rect x="260" y="292" width="4" height="42"/><rect x="271" y="292" width="10" height="42"/><rect x="288" y="292" width="5" height="42"/><rect x="300" y="292" width="13" height="42"/><rect x="322" y="292" width="5" height="42"/><rect x="337" y="292" width="9" height="42"/><rect x="353" y="292" width="4" height="42"/><rect x="365" y="292" width="12" height="42"/><rect x="385" y="292" width="7" height="42"/></g></svg>
