<svg xmlns="http://www.w3.org/2000/svg" viewBox="0 0 1200 700" role="img" aria-labelledby="title desc">
<title id="title">Packaging Studio scalloped soap ribbon</title><desc id="desc">A packaging design screen showing a narrow soap ribbon with a large scalloped front badge, curved bilingual product text, ingredient panels, rear medallion and claims area.</desc>
<defs><linearGradient id="bg" x1="0" x2="1"><stop stop-color="#1b2638"/><stop offset="1" stop-color="#3b2430"/></linearGradient><filter id="shadow"><feDropShadow dx="0" dy="18" stdDeviation="18" flood-opacity=".32"/></filter></defs>
<rect width="1200" height="700" fill="url(#bg)"/><circle cx="1030" cy="130" r="220" fill="#b69a61" opacity=".12"/><circle cx="120" cy="630" r="210" fill="#9b8068" opacity=".14"/>
<g transform="translate(55 240)" filter="url(#shadow)"><rect y="66" width="1090" height="88" rx="10" fill="#f2ead8" stroke="#b69a61" stroke-width="6"/><path d="M170 0l10 14 17-8 7 17 19-4 3 19 19 3-4 19 17 7-8 17 14 10-14 10 8 17-17 7 4 19-19 3-3 19-19-4-7 17-17-8-10 14-10-14-17 8-7-17-19 4-3-19-19-3 4-19-17-7 8-17-14-10 14-10-8-17 17-7-4-19 19-3 3-19 19 4 7-17 17 8z" transform="translate(0 10)" fill="#f2ead8" stroke="#b69a61" stroke-width="5"/><circle cx="170" cy="100" r="70" fill="none" stroke="#2f2721" stroke-width="3"/><circle cx="170" cy="100" r="63" fill="none" stroke="#b69a61" stroke-width="2"/><g fill="#2f2721" text-anchor="middle"><text x="170" y="68" font-family="Arial" font-size="16" font-weight="700">COCONUT MILK</text><text x="170" y="101" font-family="Georgia" font-size="23" font-weight="700">Luxury Soap</text><text x="170" y="125" font-family="Georgia" font-size="15">Savon de luxe</text><text x="170" y="149" font-family="Arial" font-size="15" font-weight="700">SWEET VANILLA</text><text x="390" y="90" font-family="Arial" font-size="16" font-weight="700">INGREDIENTS</text><text x="390" y="115" font-family="Arial" font-size="12">Structured label copy</text><text x="610" y="90" font-family="Arial" font-size="16" font-weight="700">INGRÉDIENTS</text><text x="610" y="115" font-family="Arial" font-size="12">Texte structuré</text><text x="845" y="96" font-family="Georgia" font-size="18" font-weight="700">Devil n Dove</text><text x="845" y="119" font-family="Arial" font-size="12">Rear medallion</text><text x="1010" y="95" font-family="Arial" font-size="15" font-weight="700">CLAIMS</text><text x="1010" y="119" font-family="Arial" font-size="12">NET 100 g</text></g></g>
<text x="600" y="550" fill="#f3dfb1" font-family="Arial,sans-serif" text-anchor="middle" font-size="30">Photo reference → structured fields → live SVG → reviewed print version</text><text x="600" y="594" fill="#d7c7a3" font-family="Arial,sans-serif" text-anchor="middle" font-size="20">The medallion extends beyond the narrow wrap band without clipping.</text>
</svg>
